<?xml version="1.0" standalone="no"?>
<svg xmlns="http://www.w3.org/2000/svg" xmlns:xlink="http://www.w3.org/1999/xlink" width="691pt" height="967pt" viewBox="0.00 0.00 691.31 966.8">
<g id="graph0" class="graph" transform="translate(37.8110912852415,898.1484311148713) scale(0.8908987222300384)" data-name="Verzweigungsgrad">

<polygon fill="white" stroke="none" points="-4,4 -4,-962.8 687.31,-962.8 687.31,4 -4,4"/>
<!-- level1 --><text text-anchor="middle" x="341.66" y="-942.2" font-family="Times,serif" font-size="14.00">Zustandsgraph </text>
<g id="node1" class="node" pointer-events="visible" data-name="level1">

<text text-anchor="middle" x="130" y="-814.6" font-family="Times,serif" font-size="14.00">Startzustand </text>
<text text-anchor="middle" x="130" y="-797.8" font-family="Times,serif" font-size="14.00"> leeres Feld</text>
</g><text text-anchor="middle" x="341.66" y="-925.4" font-family="Times,serif" font-size="14.00"> Suchbaum</text>
<!-- level2 --><g id="clust1" class="cluster" data-name="beschreibung" data-comment="level2">

<polygon fill="none" stroke="black" stroke-width="0" points="8,-8 8,-864 252,-864 252,-8 8,-8"/>
<text text-anchor="start" x="89.16" y="-848.4" font-family="Times,serif" font-size="14.00" font-weight="bold">Beschreibung</text>
</g><g id="clust2" class="cluster" data-name="felder" data-comment="level2">

<polygon fill="none" stroke="black" stroke-width="0" points="260,-182 260,-909.2 670,-909.2 670,-182 260,-182"/>
<text text-anchor="start" x="397.14" y="-893.6" font-family="Times,serif" font-weight="bold" font-size="14.00">Felder bzw. Zuständer</text>
</g>
<g id="node2" class="node" pointer-events="visible" data-name="level2">

<text text-anchor="middle" x="130" y="-629.8" font-family="Times,serif" font-size="14.00">Spieler A </text>
<text text-anchor="middle" x="130" y="-613" font-family="Times,serif" font-size="14.00"> erster Stein</text>
</g>
<!-- level1&#45;&#45;level2 -->
<!-- level3 -->
<g id="node3" class="node" pointer-events="visible" data-name="level3">

<text text-anchor="middle" x="130" y="-445" font-family="Times,serif" font-size="14.00">Spieler B </text>
<text text-anchor="middle" x="130" y="-428.2" font-family="Times,serif" font-size="14.00"> erster Stein</text>
</g>
<!-- level2&#45;&#45;level3 -->
<!-- level4 -->
<g id="node4" class="node" pointer-events="visible" data-name="level4">

<text text-anchor="middle" x="130" y="-260.2" font-family="Times,serif" font-size="14.00">Spieler A </text>
<text text-anchor="middle" x="130" y="-243.4" font-family="Times,serif" font-size="14.00"> zweiter Stein</text>
</g>
<!-- level3&#45;&#45;level4 -->
<!-- level5 -->
<g id="node5" class="node" pointer-events="visible" data-name="level5">

<text text-anchor="middle" x="130" y="-136.4" font-family="Times,serif" font-size="14.00">•</text>
<text text-anchor="middle" x="130" y="-119.6" font-family="Times,serif" font-size="14.00">•</text>
<text text-anchor="middle" x="130" y="-102.8" font-family="Times,serif" font-size="14.00">•</text>
</g>
<!-- level4&#45;&#45;level5 -->
<!-- level8 -->
<g id="node6" class="node" pointer-events="visible" data-name="level8">

<text text-anchor="middle" x="130" y="-41" font-family="Times,serif" font-size="14.00">die ersten 8. Spielzüge</text>
<text text-anchor="middle" x="130" y="-24.2" font-family="Times,serif" font-size="14.00">haben sehr großen Verzweigungsgrad</text>
</g>
<!-- level5&#45;&#45;level8 -->
<!-- start -->
<g id="node7" class="node" pointer-events="visible" data-name="start">

<polygon fill="none" stroke="black" points="435,-847.4 435,-869.4 448,-869.4 448,-847.4 435,-847.4"/>
<text text-anchor="start" x="437.65" y="-853.8" font-family="Consolas" font-size="14.00"> </text>
<polygon fill="none" stroke="black" points="450,-847.4 450,-869.4 463,-869.4 463,-847.4 450,-847.4"/>
<text text-anchor="start" x="452.65" y="-853.8" font-family="Consolas" font-size="14.00"> </text>
<polygon fill="none" stroke="black" points="465,-847.4 465,-869.4 478,-869.4 478,-847.4 465,-847.4"/>
<text text-anchor="start" x="467.65" y="-853.8" font-family="Consolas" font-size="14.00"> </text>
<polygon fill="none" stroke="black" points="480,-847.4 480,-869.4 493,-869.4 493,-847.4 480,-847.4"/>
<text text-anchor="start" x="482.65" y="-853.8" font-family="Consolas" font-size="14.00"> </text>
<polygon fill="none" stroke="black" points="495,-847.4 495,-869.4 508,-869.4 508,-847.4 495,-847.4"/>
<text text-anchor="start" x="497.65" y="-853.8" font-family="Consolas" font-size="14.00"> </text>
<polygon fill="none" stroke="black" points="435,-823.4 435,-845.4 448,-845.4 448,-823.4 435,-823.4"/>
<text text-anchor="start" x="437.65" y="-829.8" font-family="Consolas" font-size="14.00"> </text>
<polygon fill="none" stroke="black" points="450,-823.4 450,-845.4 463,-845.4 463,-823.4 450,-823.4"/>
<text text-anchor="start" x="452.65" y="-829.8" font-family="Consolas" font-size="14.00"> </text>
<polygon fill="none" stroke="black" points="465,-823.4 465,-845.4 478,-845.4 478,-823.4 465,-823.4"/>
<text text-anchor="start" x="467.65" y="-829.8" font-family="Consolas" font-size="14.00"> </text>
<polygon fill="none" stroke="black" points="480,-823.4 480,-845.4 493,-845.4 493,-823.4 480,-823.4"/>
<text text-anchor="start" x="482.65" y="-829.8" font-family="Consolas" font-size="14.00"> </text>
<polygon fill="none" stroke="black" points="495,-823.4 495,-845.4 508,-845.4 508,-823.4 495,-823.4"/>
<text text-anchor="start" x="497.65" y="-829.8" font-family="Consolas" font-size="14.00"> </text>
<polygon fill="none" stroke="black" points="435,-799.4 435,-821.4 448,-821.4 448,-799.4 435,-799.4"/>
<text text-anchor="start" x="437.65" y="-805.8" font-family="Consolas" font-size="14.00"> </text>
<polygon fill="none" stroke="black" points="450,-799.4 450,-821.4 463,-821.4 463,-799.4 450,-799.4"/>
<text text-anchor="start" x="452.65" y="-805.8" font-family="Consolas" font-size="14.00"> </text>
<polygon fill="none" stroke="black" points="465,-799.4 465,-821.4 478,-821.4 478,-799.4 465,-799.4"/>
<text text-anchor="start" x="467.65" y="-805.8" font-family="Consolas" font-size="14.00"> </text>
<polygon fill="none" stroke="black" points="480,-799.4 480,-821.4 493,-821.4 493,-799.4 480,-799.4"/>
<text text-anchor="start" x="482.65" y="-805.8" font-family="Consolas" font-size="14.00"> </text>
<polygon fill="none" stroke="black" points="495,-799.4 495,-821.4 508,-821.4 508,-799.4 495,-799.4"/>
<text text-anchor="start" x="497.65" y="-805.8" font-family="Consolas" font-size="14.00"> </text>
<polygon fill="none" stroke="black" points="435,-775.4 435,-797.4 448,-797.4 448,-775.4 435,-775.4"/>
<text text-anchor="start" x="437.65" y="-781.8" font-family="Consolas" font-size="14.00"> </text>
<polygon fill="none" stroke="black" points="450,-775.4 450,-797.4 463,-797.4 463,-775.4 450,-775.4"/>
<text text-anchor="start" x="452.65" y="-781.8" font-family="Consolas" font-size="14.00"> </text>
<polygon fill="none" stroke="black" points="465,-775.4 465,-797.4 478,-797.4 478,-775.4 465,-775.4"/>
<text text-anchor="start" x="467.65" y="-781.8" font-family="Consolas" font-size="14.00"> </text>
<polygon fill="none" stroke="black" points="480,-775.4 480,-797.4 493,-797.4 493,-775.4 480,-775.4"/>
<text text-anchor="start" x="482.65" y="-781.8" font-family="Consolas" font-size="14.00"> </text>
<polygon fill="none" stroke="black" points="495,-775.4 495,-797.4 508,-797.4 508,-775.4 495,-775.4"/>
<text text-anchor="start" x="497.65" y="-781.8" font-family="Consolas" font-size="14.00"> </text>
<polygon fill="none" stroke="black" points="435,-751.4 435,-773.4 448,-773.4 448,-751.4 435,-751.4"/>
<text text-anchor="start" x="437.65" y="-757.8" font-family="Consolas" font-size="14.00"> </text>
<polygon fill="none" stroke="black" points="450,-751.4 450,-773.4 463,-773.4 463,-751.4 450,-751.4"/>
<text text-anchor="start" x="452.65" y="-757.8" font-family="Consolas" font-size="14.00"> </text>
<polygon fill="none" stroke="black" points="465,-751.4 465,-773.4 478,-773.4 478,-751.4 465,-751.4"/>
<text text-anchor="start" x="467.65" y="-757.8" font-family="Consolas" font-size="14.00"> </text>
<polygon fill="none" stroke="black" points="480,-751.4 480,-773.4 493,-773.4 493,-751.4 480,-751.4"/>
<text text-anchor="start" x="482.65" y="-757.8" font-family="Consolas" font-size="14.00"> </text>
<polygon fill="none" stroke="black" points="495,-751.4 495,-773.4 508,-773.4 508,-751.4 495,-751.4"/>
<text text-anchor="start" x="497.65" y="-757.8" font-family="Consolas" font-size="14.00"> </text>
<polygon fill="none" stroke="black" points="431.5,-748.4 431.5,-872.4 510.5,-872.4 510.5,-748.4 431.5,-748.4"/>
</g>
<!-- z1 -->
<g id="node8" class="node" pointer-events="visible" data-name="z1">

<polygon fill="none" stroke="black" points="280,-662.6 280,-684.6 293,-684.6 293,-662.6 280,-662.6"/>
<text text-anchor="start" x="282.65" y="-669" font-family="Consolas" font-size="14.00"> </text>
<polygon fill="none" stroke="black" points="295,-662.6 295,-684.6 308,-684.6 308,-662.6 295,-662.6"/>
<text text-anchor="start" x="297.65" y="-669" font-family="Consolas" font-size="14.00"> </text>
<polygon fill="none" stroke="black" points="310,-662.6 310,-684.6 323,-684.6 323,-662.6 310,-662.6"/>
<text text-anchor="start" x="312.65" y="-669" font-family="Consolas" font-size="14.00"> </text>
<polygon fill="none" stroke="black" points="325,-662.6 325,-684.6 338,-684.6 338,-662.6 325,-662.6"/>
<text text-anchor="start" x="327.65" y="-669" font-family="Consolas" font-size="14.00"> </text>
<polygon fill="none" stroke="black" points="340,-662.6 340,-684.6 353,-684.6 353,-662.6 340,-662.6"/>
<text text-anchor="start" x="342.65" y="-669" font-family="Consolas" font-size="14.00"> </text>
<polygon fill="none" stroke="black" points="280,-638.6 280,-660.6 293,-660.6 293,-638.6 280,-638.6"/>
<text text-anchor="start" x="282.65" y="-645" font-family="Consolas" font-size="14.00"> </text>
<polygon fill="none" stroke="black" points="295,-638.6 295,-660.6 308,-660.6 308,-638.6 295,-638.6"/>
<text text-anchor="start" x="297.65" y="-645" font-family="Consolas" font-size="14.00"> </text>
<polygon fill="none" stroke="black" points="310,-638.6 310,-660.6 323,-660.6 323,-638.6 310,-638.6"/>
<text text-anchor="start" x="312.65" y="-645" font-family="Consolas" font-size="14.00"> </text>
<polygon fill="none" stroke="black" points="325,-638.6 325,-660.6 338,-660.6 338,-638.6 325,-638.6"/>
<text text-anchor="start" x="327.65" y="-645" font-family="Consolas" font-size="14.00"> </text>
<polygon fill="none" stroke="black" points="340,-638.6 340,-660.6 353,-660.6 353,-638.6 340,-638.6"/>
<text text-anchor="start" x="342.65" y="-645" font-family="Consolas" font-size="14.00"> </text>
<polygon fill="none" stroke="black" points="280,-614.6 280,-636.6 293,-636.6 293,-614.6 280,-614.6"/>
<text text-anchor="start" x="282.65" y="-621" font-family="Consolas" font-size="14.00"> </text>
<polygon fill="none" stroke="black" points="295,-614.6 295,-636.6 308,-636.6 308,-614.6 295,-614.6"/>
<text text-anchor="start" x="297.65" y="-621" font-family="Consolas" font-size="14.00"> </text>
<polygon fill="none" stroke="black" points="310,-614.6 310,-636.6 323,-636.6 323,-614.6 310,-614.6"/>
<text text-anchor="start" x="312.65" y="-621" font-family="Consolas" font-size="14.00">x</text>
<polygon fill="none" stroke="black" points="325,-614.6 325,-636.6 338,-636.6 338,-614.6 325,-614.6"/>
<text text-anchor="start" x="327.65" y="-621" font-family="Consolas" font-size="14.00"> </text>
<polygon fill="none" stroke="black" points="340,-614.6 340,-636.6 353,-636.6 353,-614.6 340,-614.6"/>
<text text-anchor="start" x="342.65" y="-621" font-family="Consolas" font-size="14.00"> </text>
<polygon fill="none" stroke="black" points="280,-590.6 280,-612.6 293,-612.6 293,-590.6 280,-590.6"/>
<text text-anchor="start" x="282.65" y="-597" font-family="Consolas" font-size="14.00"> </text>
<polygon fill="none" stroke="black" points="295,-590.6 295,-612.6 308,-612.6 308,-590.6 295,-590.6"/>
<text text-anchor="start" x="297.65" y="-597" font-family="Consolas" font-size="14.00"> </text>
<polygon fill="none" stroke="black" points="310,-590.6 310,-612.6 323,-612.6 323,-590.6 310,-590.6"/>
<text text-anchor="start" x="312.65" y="-597" font-family="Consolas" font-size="14.00"> </text>
<polygon fill="none" stroke="black" points="325,-590.6 325,-612.6 338,-612.6 338,-590.6 325,-590.6"/>
<text text-anchor="start" x="327.65" y="-597" font-family="Consolas" font-size="14.00"> </text>
<polygon fill="none" stroke="black" points="340,-590.6 340,-612.6 353,-612.6 353,-590.6 340,-590.6"/>
<text text-anchor="start" x="342.65" y="-597" font-family="Consolas" font-size="14.00"> </text>
<polygon fill="none" stroke="black" points="280,-566.6 280,-588.6 293,-588.6 293,-566.6 280,-566.6"/>
<text text-anchor="start" x="282.65" y="-573" font-family="Consolas" font-size="14.00"> </text>
<polygon fill="none" stroke="black" points="295,-566.6 295,-588.6 308,-588.6 308,-566.6 295,-566.6"/>
<text text-anchor="start" x="297.65" y="-573" font-family="Consolas" font-size="14.00"> </text>
<polygon fill="none" stroke="black" points="310,-566.6 310,-588.6 323,-588.6 323,-566.6 310,-566.6"/>
<text text-anchor="start" x="312.65" y="-573" font-family="Consolas" font-size="14.00"> </text>
<polygon fill="none" stroke="black" points="325,-566.6 325,-588.6 338,-588.6 338,-566.6 325,-566.6"/>
<text text-anchor="start" x="327.65" y="-573" font-family="Consolas" font-size="14.00"> </text>
<polygon fill="none" stroke="black" points="340,-566.6 340,-588.6 353,-588.6 353,-566.6 340,-566.6"/>
<text text-anchor="start" x="342.65" y="-573" font-family="Consolas" font-size="14.00"> </text>
<polygon fill="none" stroke="black" points="276.5,-563.6 276.5,-687.6 355.5,-687.6 355.5,-563.6 276.5,-563.6"/>
</g>
<!-- start&#45;&#45;z1 -->
<g id="edge6" class="edge" data-name="start--z1">

<path fill="none" stroke="black" d="M423.65,-753.56C404.51,-730.99 382.46,-704.98 363.32,-682.41"/>
</g>
<!-- z2 -->
<g id="node9" class="node" pointer-events="visible" data-name="z2">

<polygon fill="none" stroke="black" points="393,-662.6 393,-684.6 406,-684.6 406,-662.6 393,-662.6"/>
<text text-anchor="start" x="395.65" y="-669" font-family="Consolas" font-size="14.00"> </text>
<polygon fill="none" stroke="black" points="408,-662.6 408,-684.6 421,-684.6 421,-662.6 408,-662.6"/>
<text text-anchor="start" x="410.65" y="-669" font-family="Consolas" font-size="14.00"> </text>
<polygon fill="none" stroke="black" points="423,-662.6 423,-684.6 436,-684.6 436,-662.6 423,-662.6"/>
<text text-anchor="start" x="425.65" y="-669" font-family="Consolas" font-size="14.00"> </text>
<polygon fill="none" stroke="black" points="438,-662.6 438,-684.6 451,-684.6 451,-662.6 438,-662.6"/>
<text text-anchor="start" x="440.65" y="-669" font-family="Consolas" font-size="14.00"> </text>
<polygon fill="none" stroke="black" points="453,-662.6 453,-684.6 466,-684.6 466,-662.6 453,-662.6"/>
<text text-anchor="start" x="455.65" y="-669" font-family="Consolas" font-size="14.00"> </text>
<polygon fill="none" stroke="black" points="393,-638.6 393,-660.6 406,-660.6 406,-638.6 393,-638.6"/>
<text text-anchor="start" x="395.65" y="-645" font-family="Consolas" font-size="14.00"> </text>
<polygon fill="none" stroke="black" points="408,-638.6 408,-660.6 421,-660.6 421,-638.6 408,-638.6"/>
<text text-anchor="start" x="410.65" y="-645" font-family="Consolas" font-size="14.00"> </text>
<polygon fill="none" stroke="black" points="423,-638.6 423,-660.6 436,-660.6 436,-638.6 423,-638.6"/>
<text text-anchor="start" x="425.65" y="-645" font-family="Consolas" font-size="14.00"> </text>
<polygon fill="none" stroke="black" points="438,-638.6 438,-660.6 451,-660.6 451,-638.6 438,-638.6"/>
<text text-anchor="start" x="440.65" y="-645" font-family="Consolas" font-size="14.00"> </text>
<polygon fill="none" stroke="black" points="453,-638.6 453,-660.6 466,-660.6 466,-638.6 453,-638.6"/>
<text text-anchor="start" x="455.65" y="-645" font-family="Consolas" font-size="14.00"> </text>
<polygon fill="none" stroke="black" points="393,-614.6 393,-636.6 406,-636.6 406,-614.6 393,-614.6"/>
<text text-anchor="start" x="395.65" y="-621" font-family="Consolas" font-size="14.00"> </text>
<polygon fill="none" stroke="black" points="408,-614.6 408,-636.6 421,-636.6 421,-614.6 408,-614.6"/>
<text text-anchor="start" x="410.65" y="-621" font-family="Consolas" font-size="14.00"> </text>
<polygon fill="none" stroke="black" points="423,-614.6 423,-636.6 436,-636.6 436,-614.6 423,-614.6"/>
<text text-anchor="start" x="425.65" y="-621" font-family="Consolas" font-size="14.00"> </text>
<polygon fill="none" stroke="black" points="438,-614.6 438,-636.6 451,-636.6 451,-614.6 438,-614.6"/>
<text text-anchor="start" x="440.65" y="-621" font-family="Consolas" font-size="14.00"> </text>
<polygon fill="none" stroke="black" points="453,-614.6 453,-636.6 466,-636.6 466,-614.6 453,-614.6"/>
<text text-anchor="start" x="455.65" y="-621" font-family="Consolas" font-size="14.00"> </text>
<polygon fill="none" stroke="black" points="393,-590.6 393,-612.6 406,-612.6 406,-590.6 393,-590.6"/>
<text text-anchor="start" x="395.65" y="-597" font-family="Consolas" font-size="14.00"> </text>
<polygon fill="none" stroke="black" points="408,-590.6 408,-612.6 421,-612.6 421,-590.6 408,-590.6"/>
<text text-anchor="start" x="410.65" y="-597" font-family="Consolas" font-size="14.00"> </text>
<polygon fill="none" stroke="black" points="423,-590.6 423,-612.6 436,-612.6 436,-590.6 423,-590.6"/>
<text text-anchor="start" x="425.65" y="-597" font-family="Consolas" font-size="14.00">x</text>
<polygon fill="none" stroke="black" points="438,-590.6 438,-612.6 451,-612.6 451,-590.6 438,-590.6"/>
<text text-anchor="start" x="440.65" y="-597" font-family="Consolas" font-size="14.00"> </text>
<polygon fill="none" stroke="black" points="453,-590.6 453,-612.6 466,-612.6 466,-590.6 453,-590.6"/>
<text text-anchor="start" x="455.65" y="-597" font-family="Consolas" font-size="14.00"> </text>
<polygon fill="none" stroke="black" points="393,-566.6 393,-588.6 406,-588.6 406,-566.6 393,-566.6"/>
<text text-anchor="start" x="395.65" y="-573" font-family="Consolas" font-size="14.00"> </text>
<polygon fill="none" stroke="black" points="408,-566.6 408,-588.6 421,-588.6 421,-566.6 408,-566.6"/>
<text text-anchor="start" x="410.65" y="-573" font-family="Consolas" font-size="14.00"> </text>
<polygon fill="none" stroke="black" points="423,-566.6 423,-588.6 436,-588.6 436,-566.6 423,-566.6"/>
<text text-anchor="start" x="425.65" y="-573" font-family="Consolas" font-size="14.00"> </text>
<polygon fill="none" stroke="black" points="438,-566.6 438,-588.6 451,-588.6 451,-566.6 438,-566.6"/>
<text text-anchor="start" x="440.65" y="-573" font-family="Consolas" font-size="14.00"> </text>
<polygon fill="none" stroke="black" points="453,-566.6 453,-588.6 466,-588.6 466,-566.6 453,-566.6"/>
<text text-anchor="start" x="455.65" y="-573" font-family="Consolas" font-size="14.00"> </text>
<polygon fill="none" stroke="black" points="389.5,-563.6 389.5,-687.6 468.5,-687.6 468.5,-563.6 389.5,-563.6"/>
</g>
<!-- start&#45;&#45;z2 -->
<g id="edge7" class="edge" data-name="start--z2">

<path fill="none" stroke="black" d="M456.07,-744.44C452.11,-727.2 447.84,-708.58 443.88,-691.35"/>
</g>
<!-- z4 -->
<g id="node10" class="node" pointer-events="visible" data-name="z4">

<polygon fill="none" stroke="black" points="506,-662.6 506,-684.6 519,-684.6 519,-662.6 506,-662.6"/>
<text text-anchor="start" x="508.65" y="-669" font-family="Consolas" font-size="14.00"> </text>
<polygon fill="none" stroke="black" points="521,-662.6 521,-684.6 534,-684.6 534,-662.6 521,-662.6"/>
<text text-anchor="start" x="523.65" y="-669" font-family="Consolas" font-size="14.00"> </text>
<polygon fill="none" stroke="black" points="536,-662.6 536,-684.6 549,-684.6 549,-662.6 536,-662.6"/>
<text text-anchor="start" x="538.65" y="-669" font-family="Consolas" font-size="14.00"> </text>
<polygon fill="none" stroke="black" points="551,-662.6 551,-684.6 564,-684.6 564,-662.6 551,-662.6"/>
<text text-anchor="start" x="553.65" y="-669" font-family="Consolas" font-size="14.00"> </text>
<polygon fill="none" stroke="black" points="566,-662.6 566,-684.6 579,-684.6 579,-662.6 566,-662.6"/>
<text text-anchor="start" x="568.65" y="-669" font-family="Consolas" font-size="14.00"> </text>
<polygon fill="none" stroke="black" points="506,-638.6 506,-660.6 519,-660.6 519,-638.6 506,-638.6"/>
<text text-anchor="start" x="508.65" y="-645" font-family="Consolas" font-size="14.00"> </text>
<polygon fill="none" stroke="black" points="521,-638.6 521,-660.6 534,-660.6 534,-638.6 521,-638.6"/>
<text text-anchor="start" x="523.65" y="-645" font-family="Consolas" font-size="14.00"> </text>
<polygon fill="none" stroke="black" points="536,-638.6 536,-660.6 549,-660.6 549,-638.6 536,-638.6"/>
<text text-anchor="start" x="538.65" y="-645" font-family="Consolas" font-size="14.00"> </text>
<polygon fill="none" stroke="black" points="551,-638.6 551,-660.6 564,-660.6 564,-638.6 551,-638.6"/>
<text text-anchor="start" x="553.65" y="-645" font-family="Consolas" font-size="14.00"> </text>
<polygon fill="none" stroke="black" points="566,-638.6 566,-660.6 579,-660.6 579,-638.6 566,-638.6"/>
<text text-anchor="start" x="568.65" y="-645" font-family="Consolas" font-size="14.00"> </text>
<polygon fill="none" stroke="black" points="506,-614.6 506,-636.6 519,-636.6 519,-614.6 506,-614.6"/>
<text text-anchor="start" x="508.65" y="-621" font-family="Consolas" font-size="14.00"> </text>
<polygon fill="none" stroke="black" points="521,-614.6 521,-636.6 534,-636.6 534,-614.6 521,-614.6"/>
<text text-anchor="start" x="523.65" y="-621" font-family="Consolas" font-size="14.00"> </text>
<polygon fill="none" stroke="black" points="536,-614.6 536,-636.6 549,-636.6 549,-614.6 536,-614.6"/>
<text text-anchor="start" x="538.65" y="-621" font-family="Consolas" font-size="14.00"> </text>
<polygon fill="none" stroke="black" points="551,-614.6 551,-636.6 564,-636.6 564,-614.6 551,-614.6"/>
<text text-anchor="start" x="553.65" y="-621" font-family="Consolas" font-size="14.00"> </text>
<polygon fill="none" stroke="black" points="566,-614.6 566,-636.6 579,-636.6 579,-614.6 566,-614.6"/>
<text text-anchor="start" x="568.65" y="-621" font-family="Consolas" font-size="14.00"> </text>
<polygon fill="none" stroke="black" points="506,-590.6 506,-612.6 519,-612.6 519,-590.6 506,-590.6"/>
<text text-anchor="start" x="508.65" y="-597" font-family="Consolas" font-size="14.00"> </text>
<polygon fill="none" stroke="black" points="521,-590.6 521,-612.6 534,-612.6 534,-590.6 521,-590.6"/>
<text text-anchor="start" x="523.65" y="-597" font-family="Consolas" font-size="14.00"> </text>
<polygon fill="none" stroke="black" points="536,-590.6 536,-612.6 549,-612.6 549,-590.6 536,-590.6"/>
<text text-anchor="start" x="538.65" y="-597" font-family="Consolas" font-size="14.00"> </text>
<polygon fill="none" stroke="black" points="551,-590.6 551,-612.6 564,-612.6 564,-590.6 551,-590.6"/>
<text text-anchor="start" x="553.65" y="-597" font-family="Consolas" font-size="14.00"> </text>
<polygon fill="none" stroke="black" points="566,-590.6 566,-612.6 579,-612.6 579,-590.6 566,-590.6"/>
<text text-anchor="start" x="568.65" y="-597" font-family="Consolas" font-size="14.00"> </text>
<polygon fill="none" stroke="black" points="506,-566.6 506,-588.6 519,-588.6 519,-566.6 506,-566.6"/>
<text text-anchor="start" x="508.65" y="-573" font-family="Consolas" font-size="14.00"> </text>
<polygon fill="none" stroke="black" points="521,-566.6 521,-588.6 534,-588.6 534,-566.6 521,-566.6"/>
<text text-anchor="start" x="523.65" y="-573" font-family="Consolas" font-size="14.00"> </text>
<polygon fill="none" stroke="black" points="536,-566.6 536,-588.6 549,-588.6 549,-566.6 536,-566.6"/>
<text text-anchor="start" x="538.65" y="-573" font-family="Consolas" font-size="14.00"> </text>
<polygon fill="none" stroke="black" points="551,-566.6 551,-588.6 564,-588.6 564,-566.6 551,-566.6"/>
<text text-anchor="start" x="553.65" y="-573" font-family="Consolas" font-size="14.00"> </text>
<polygon fill="none" stroke="black" points="566,-566.6 566,-588.6 579,-588.6 579,-566.6 566,-566.6"/>
<text text-anchor="start" x="568.65" y="-573" font-family="Consolas" font-size="14.00">x</text>
<polygon fill="none" stroke="black" points="502.5,-563.6 502.5,-687.6 581.5,-687.6 581.5,-563.6 502.5,-563.6"/>
</g>
<!-- start&#45;&#45;z4 -->
<g id="edge9" class="edge" data-name="start--z4">

<path fill="none" stroke="black" d="M496.23,-744.44C502.93,-727.2 510.16,-708.58 516.85,-691.35"/>
</g>
<!-- z3 -->
<g id="node11" class="node" pointer-events="visible" data-name="z3">

<text text-anchor="middle" x="635" y="-621.4" font-family="Consolas" font-size="14.00">...</text>
</g>
<!-- start&#45;&#45;z3 -->
<g id="edge8" class="edge" data-name="start--z3">

<path fill="none" stroke="black" d="M518.3,-772.26C544.1,-750.52 575.48,-721.51 599,-691.6 610.8,-676.59 620.99,-657.21 627.49,-643.53"/>
<text text-anchor="middle" x="633.16" y="-713.8" font-family="Times,serif" font-size="14.00">25-Möglichkeiten</text>
</g>
<!-- z5 -->
<g id="node12" class="node" pointer-events="visible" data-name="z5">

<polygon fill="none" stroke="black" points="280,-477.8 280,-499.8 293,-499.8 293,-477.8 280,-477.8"/>
<text text-anchor="start" x="282.65" y="-484.2" font-family="Consolas" font-size="14.00"> </text>
<polygon fill="none" stroke="black" points="295,-477.8 295,-499.8 308,-499.8 308,-477.8 295,-477.8"/>
<text text-anchor="start" x="297.65" y="-484.2" font-family="Consolas" font-size="14.00"> </text>
<polygon fill="none" stroke="black" points="310,-477.8 310,-499.8 323,-499.8 323,-477.8 310,-477.8"/>
<text text-anchor="start" x="312.65" y="-484.2" font-family="Consolas" font-size="14.00"> </text>
<polygon fill="none" stroke="black" points="325,-477.8 325,-499.8 338,-499.8 338,-477.8 325,-477.8"/>
<text text-anchor="start" x="327.65" y="-484.2" font-family="Consolas" font-size="14.00"> </text>
<polygon fill="none" stroke="black" points="340,-477.8 340,-499.8 353,-499.8 353,-477.8 340,-477.8"/>
<text text-anchor="start" x="342.65" y="-484.2" font-family="Consolas" font-size="14.00"> </text>
<polygon fill="none" stroke="black" points="280,-453.8 280,-475.8 293,-475.8 293,-453.8 280,-453.8"/>
<text text-anchor="start" x="282.65" y="-460.2" font-family="Consolas" font-size="14.00"> </text>
<polygon fill="none" stroke="black" points="295,-453.8 295,-475.8 308,-475.8 308,-453.8 295,-453.8"/>
<text text-anchor="start" x="297.65" y="-460.2" font-family="Consolas" font-size="14.00"> </text>
<polygon fill="none" stroke="black" points="310,-453.8 310,-475.8 323,-475.8 323,-453.8 310,-453.8"/>
<text text-anchor="start" x="312.65" y="-460.2" font-family="Consolas" font-size="14.00"> </text>
<polygon fill="none" stroke="black" points="325,-453.8 325,-475.8 338,-475.8 338,-453.8 325,-453.8"/>
<text text-anchor="start" x="327.65" y="-460.2" font-family="Consolas" font-size="14.00"> </text>
<polygon fill="none" stroke="black" points="340,-453.8 340,-475.8 353,-475.8 353,-453.8 340,-453.8"/>
<text text-anchor="start" x="342.65" y="-460.2" font-family="Consolas" font-size="14.00"> </text>
<polygon fill="none" stroke="black" points="280,-429.8 280,-451.8 293,-451.8 293,-429.8 280,-429.8"/>
<text text-anchor="start" x="282.65" y="-436.2" font-family="Consolas" font-size="14.00"> </text>
<polygon fill="none" stroke="black" points="295,-429.8 295,-451.8 308,-451.8 308,-429.8 295,-429.8"/>
<text text-anchor="start" x="297.65" y="-436.2" font-family="Consolas" font-size="14.00">o</text>
<polygon fill="none" stroke="black" points="310,-429.8 310,-451.8 323,-451.8 323,-429.8 310,-429.8"/>
<text text-anchor="start" x="312.65" y="-436.2" font-family="Consolas" font-size="14.00">x</text>
<polygon fill="none" stroke="black" points="325,-429.8 325,-451.8 338,-451.8 338,-429.8 325,-429.8"/>
<text text-anchor="start" x="327.65" y="-436.2" font-family="Consolas" font-size="14.00"> </text>
<polygon fill="none" stroke="black" points="340,-429.8 340,-451.8 353,-451.8 353,-429.8 340,-429.8"/>
<text text-anchor="start" x="342.65" y="-436.2" font-family="Consolas" font-size="14.00"> </text>
<polygon fill="none" stroke="black" points="280,-405.8 280,-427.8 293,-427.8 293,-405.8 280,-405.8"/>
<text text-anchor="start" x="282.65" y="-412.2" font-family="Consolas" font-size="14.00"> </text>
<polygon fill="none" stroke="black" points="295,-405.8 295,-427.8 308,-427.8 308,-405.8 295,-405.8"/>
<text text-anchor="start" x="297.65" y="-412.2" font-family="Consolas" font-size="14.00"> </text>
<polygon fill="none" stroke="black" points="310,-405.8 310,-427.8 323,-427.8 323,-405.8 310,-405.8"/>
<text text-anchor="start" x="312.65" y="-412.2" font-family="Consolas" font-size="14.00"> </text>
<polygon fill="none" stroke="black" points="325,-405.8 325,-427.8 338,-427.8 338,-405.8 325,-405.8"/>
<text text-anchor="start" x="327.65" y="-412.2" font-family="Consolas" font-size="14.00"> </text>
<polygon fill="none" stroke="black" points="340,-405.8 340,-427.8 353,-427.8 353,-405.8 340,-405.8"/>
<text text-anchor="start" x="342.65" y="-412.2" font-family="Consolas" font-size="14.00"> </text>
<polygon fill="none" stroke="black" points="280,-381.8 280,-403.8 293,-403.8 293,-381.8 280,-381.8"/>
<text text-anchor="start" x="282.65" y="-388.2" font-family="Consolas" font-size="14.00"> </text>
<polygon fill="none" stroke="black" points="295,-381.8 295,-403.8 308,-403.8 308,-381.8 295,-381.8"/>
<text text-anchor="start" x="297.65" y="-388.2" font-family="Consolas" font-size="14.00"> </text>
<polygon fill="none" stroke="black" points="310,-381.8 310,-403.8 323,-403.8 323,-381.8 310,-381.8"/>
<text text-anchor="start" x="312.65" y="-388.2" font-family="Consolas" font-size="14.00"> </text>
<polygon fill="none" stroke="black" points="325,-381.8 325,-403.8 338,-403.8 338,-381.8 325,-381.8"/>
<text text-anchor="start" x="327.65" y="-388.2" font-family="Consolas" font-size="14.00"> </text>
<polygon fill="none" stroke="black" points="340,-381.8 340,-403.8 353,-403.8 353,-381.8 340,-381.8"/>
<text text-anchor="start" x="342.65" y="-388.2" font-family="Consolas" font-size="14.00"> </text>
<polygon fill="none" stroke="black" points="276.5,-378.8 276.5,-502.8 355.5,-502.8 355.5,-378.8 276.5,-378.8"/>
</g>
<!-- z1&#45;&#45;z5 -->
<g id="edge10" class="edge" data-name="z1--z5">

<path fill="none" stroke="black" d="M316,-559.64C316,-542.4 316,-523.78 316,-506.55"/>
</g>
<!-- z6 -->
<g id="node13" class="node" pointer-events="visible" data-name="z6">

<polygon fill="none" stroke="black" points="393,-477.8 393,-499.8 406,-499.8 406,-477.8 393,-477.8"/>
<text text-anchor="start" x="395.65" y="-484.2" font-family="Consolas" font-size="14.00"> </text>
<polygon fill="none" stroke="black" points="408,-477.8 408,-499.8 421,-499.8 421,-477.8 408,-477.8"/>
<text text-anchor="start" x="410.65" y="-484.2" font-family="Consolas" font-size="14.00"> </text>
<polygon fill="none" stroke="black" points="423,-477.8 423,-499.8 436,-499.8 436,-477.8 423,-477.8"/>
<text text-anchor="start" x="425.65" y="-484.2" font-family="Consolas" font-size="14.00"> </text>
<polygon fill="none" stroke="black" points="438,-477.8 438,-499.8 451,-499.8 451,-477.8 438,-477.8"/>
<text text-anchor="start" x="440.65" y="-484.2" font-family="Consolas" font-size="14.00">o</text>
<polygon fill="none" stroke="black" points="453,-477.8 453,-499.8 466,-499.8 466,-477.8 453,-477.8"/>
<text text-anchor="start" x="455.65" y="-484.2" font-family="Consolas" font-size="14.00"> </text>
<polygon fill="none" stroke="black" points="393,-453.8 393,-475.8 406,-475.8 406,-453.8 393,-453.8"/>
<text text-anchor="start" x="395.65" y="-460.2" font-family="Consolas" font-size="14.00"> </text>
<polygon fill="none" stroke="black" points="408,-453.8 408,-475.8 421,-475.8 421,-453.8 408,-453.8"/>
<text text-anchor="start" x="410.65" y="-460.2" font-family="Consolas" font-size="14.00"> </text>
<polygon fill="none" stroke="black" points="423,-453.8 423,-475.8 436,-475.8 436,-453.8 423,-453.8"/>
<text text-anchor="start" x="425.65" y="-460.2" font-family="Consolas" font-size="14.00"> </text>
<polygon fill="none" stroke="black" points="438,-453.8 438,-475.8 451,-475.8 451,-453.8 438,-453.8"/>
<text text-anchor="start" x="440.65" y="-460.2" font-family="Consolas" font-size="14.00"> </text>
<polygon fill="none" stroke="black" points="453,-453.8 453,-475.8 466,-475.8 466,-453.8 453,-453.8"/>
<text text-anchor="start" x="455.65" y="-460.2" font-family="Consolas" font-size="14.00"> </text>
<polygon fill="none" stroke="black" points="393,-429.8 393,-451.8 406,-451.8 406,-429.8 393,-429.8"/>
<text text-anchor="start" x="395.65" y="-436.2" font-family="Consolas" font-size="14.00"> </text>
<polygon fill="none" stroke="black" points="408,-429.8 408,-451.8 421,-451.8 421,-429.8 408,-429.8"/>
<text text-anchor="start" x="410.65" y="-436.2" font-family="Consolas" font-size="14.00"> </text>
<polygon fill="none" stroke="black" points="423,-429.8 423,-451.8 436,-451.8 436,-429.8 423,-429.8"/>
<text text-anchor="start" x="425.65" y="-436.2" font-family="Consolas" font-size="14.00">x</text>
<polygon fill="none" stroke="black" points="438,-429.8 438,-451.8 451,-451.8 451,-429.8 438,-429.8"/>
<text text-anchor="start" x="440.65" y="-436.2" font-family="Consolas" font-size="14.00"> </text>
<polygon fill="none" stroke="black" points="453,-429.8 453,-451.8 466,-451.8 466,-429.8 453,-429.8"/>
<text text-anchor="start" x="455.65" y="-436.2" font-family="Consolas" font-size="14.00"> </text>
<polygon fill="none" stroke="black" points="393,-405.8 393,-427.8 406,-427.8 406,-405.8 393,-405.8"/>
<text text-anchor="start" x="395.65" y="-412.2" font-family="Consolas" font-size="14.00"> </text>
<polygon fill="none" stroke="black" points="408,-405.8 408,-427.8 421,-427.8 421,-405.8 408,-405.8"/>
<text text-anchor="start" x="410.65" y="-412.2" font-family="Consolas" font-size="14.00"> </text>
<polygon fill="none" stroke="black" points="423,-405.8 423,-427.8 436,-427.8 436,-405.8 423,-405.8"/>
<text text-anchor="start" x="425.65" y="-412.2" font-family="Consolas" font-size="14.00"> </text>
<polygon fill="none" stroke="black" points="438,-405.8 438,-427.8 451,-427.8 451,-405.8 438,-405.8"/>
<text text-anchor="start" x="440.65" y="-412.2" font-family="Consolas" font-size="14.00"> </text>
<polygon fill="none" stroke="black" points="453,-405.8 453,-427.8 466,-427.8 466,-405.8 453,-405.8"/>
<text text-anchor="start" x="455.65" y="-412.2" font-family="Consolas" font-size="14.00"> </text>
<polygon fill="none" stroke="black" points="393,-381.8 393,-403.8 406,-403.8 406,-381.8 393,-381.8"/>
<text text-anchor="start" x="395.65" y="-388.2" font-family="Consolas" font-size="14.00"> </text>
<polygon fill="none" stroke="black" points="408,-381.8 408,-403.8 421,-403.8 421,-381.8 408,-381.8"/>
<text text-anchor="start" x="410.65" y="-388.2" font-family="Consolas" font-size="14.00"> </text>
<polygon fill="none" stroke="black" points="423,-381.8 423,-403.8 436,-403.8 436,-381.8 423,-381.8"/>
<text text-anchor="start" x="425.65" y="-388.2" font-family="Consolas" font-size="14.00"> </text>
<polygon fill="none" stroke="black" points="438,-381.8 438,-403.8 451,-403.8 451,-381.8 438,-381.8"/>
<text text-anchor="start" x="440.65" y="-388.2" font-family="Consolas" font-size="14.00"> </text>
<polygon fill="none" stroke="black" points="453,-381.8 453,-403.8 466,-403.8 466,-381.8 453,-381.8"/>
<text text-anchor="start" x="455.65" y="-388.2" font-family="Consolas" font-size="14.00"> </text>
<polygon fill="none" stroke="black" points="389.5,-378.8 389.5,-502.8 468.5,-502.8 468.5,-378.8 389.5,-378.8"/>
</g>
<!-- z1&#45;&#45;z6 -->
<g id="edge11" class="edge" data-name="z1--z6">

<path fill="none" stroke="black" d="M356.16,-559.64C366.82,-542.4 378.32,-523.78 388.97,-506.55"/>
</g>
<!-- z7 -->
<g id="node14" class="node" pointer-events="visible" data-name="z7">

<text text-anchor="middle" x="522" y="-436.6" font-family="Consolas" font-size="14.00">...</text>
</g>
<!-- z1&#45;&#45;z7 -->
<g id="edge12" class="edge" data-name="z1--z7">

<path fill="none" stroke="black" d="M363.45,-567.46C366.57,-564.68 369.76,-562.03 373,-559.6 417.33,-526.32 445.48,-544.63 486,-506.8 500.33,-493.42 510.34,-473.01 516.1,-458.64"/>
<text text-anchor="middle" x="508.16" y="-529" font-family="Times,serif" font-size="14.00">24-Möglichkeiten</text>
</g>
<!-- z8 -->
<g id="node15" class="node" pointer-events="visible" data-name="z8">

<polygon fill="none" stroke="black" points="280,-293 280,-315 293,-315 293,-293 280,-293"/>
<text text-anchor="start" x="282.65" y="-299.4" font-family="Consolas" font-size="14.00"> </text>
<polygon fill="none" stroke="black" points="295,-293 295,-315 308,-315 308,-293 295,-293"/>
<text text-anchor="start" x="297.65" y="-299.4" font-family="Consolas" font-size="14.00"> </text>
<polygon fill="none" stroke="black" points="310,-293 310,-315 323,-315 323,-293 310,-293"/>
<text text-anchor="start" x="312.65" y="-299.4" font-family="Consolas" font-size="14.00"> </text>
<polygon fill="none" stroke="black" points="325,-293 325,-315 338,-315 338,-293 325,-293"/>
<text text-anchor="start" x="327.65" y="-299.4" font-family="Consolas" font-size="14.00"> </text>
<polygon fill="none" stroke="black" points="340,-293 340,-315 353,-315 353,-293 340,-293"/>
<text text-anchor="start" x="342.65" y="-299.4" font-family="Consolas" font-size="14.00"> </text>
<polygon fill="none" stroke="black" points="280,-269 280,-291 293,-291 293,-269 280,-269"/>
<text text-anchor="start" x="282.65" y="-275.4" font-family="Consolas" font-size="14.00"> </text>
<polygon fill="none" stroke="black" points="295,-269 295,-291 308,-291 308,-269 295,-269"/>
<text text-anchor="start" x="297.65" y="-275.4" font-family="Consolas" font-size="14.00"> </text>
<polygon fill="none" stroke="black" points="310,-269 310,-291 323,-291 323,-269 310,-269"/>
<text text-anchor="start" x="312.65" y="-275.4" font-family="Consolas" font-size="14.00"> </text>
<polygon fill="none" stroke="black" points="325,-269 325,-291 338,-291 338,-269 325,-269"/>
<text text-anchor="start" x="327.65" y="-275.4" font-family="Consolas" font-size="14.00"> </text>
<polygon fill="none" stroke="black" points="340,-269 340,-291 353,-291 353,-269 340,-269"/>
<text text-anchor="start" x="342.65" y="-275.4" font-family="Consolas" font-size="14.00"> </text>
<polygon fill="none" stroke="black" points="280,-245 280,-267 293,-267 293,-245 280,-245"/>
<text text-anchor="start" x="282.65" y="-251.4" font-family="Consolas" font-size="14.00"> </text>
<polygon fill="none" stroke="black" points="295,-245 295,-267 308,-267 308,-245 295,-245"/>
<text text-anchor="start" x="297.65" y="-251.4" font-family="Consolas" font-size="14.00">o</text>
<polygon fill="none" stroke="black" points="310,-245 310,-267 323,-267 323,-245 310,-245"/>
<text text-anchor="start" x="312.65" y="-251.4" font-family="Consolas" font-size="14.00">x</text>
<polygon fill="none" stroke="black" points="325,-245 325,-267 338,-267 338,-245 325,-245"/>
<text text-anchor="start" x="327.65" y="-251.4" font-family="Consolas" font-size="14.00">x</text>
<polygon fill="none" stroke="black" points="340,-245 340,-267 353,-267 353,-245 340,-245"/>
<text text-anchor="start" x="342.65" y="-251.4" font-family="Consolas" font-size="14.00"> </text>
<polygon fill="none" stroke="black" points="280,-221 280,-243 293,-243 293,-221 280,-221"/>
<text text-anchor="start" x="282.65" y="-227.4" font-family="Consolas" font-size="14.00"> </text>
<polygon fill="none" stroke="black" points="295,-221 295,-243 308,-243 308,-221 295,-221"/>
<text text-anchor="start" x="297.65" y="-227.4" font-family="Consolas" font-size="14.00"> </text>
<polygon fill="none" stroke="black" points="310,-221 310,-243 323,-243 323,-221 310,-221"/>
<text text-anchor="start" x="312.65" y="-227.4" font-family="Consolas" font-size="14.00"> </text>
<polygon fill="none" stroke="black" points="325,-221 325,-243 338,-243 338,-221 325,-221"/>
<text text-anchor="start" x="327.65" y="-227.4" font-family="Consolas" font-size="14.00"> </text>
<polygon fill="none" stroke="black" points="340,-221 340,-243 353,-243 353,-221 340,-221"/>
<text text-anchor="start" x="342.65" y="-227.4" font-family="Consolas" font-size="14.00"> </text>
<polygon fill="none" stroke="black" points="280,-197 280,-219 293,-219 293,-197 280,-197"/>
<text text-anchor="start" x="282.65" y="-203.4" font-family="Consolas" font-size="14.00"> </text>
<polygon fill="none" stroke="black" points="295,-197 295,-219 308,-219 308,-197 295,-197"/>
<text text-anchor="start" x="297.65" y="-203.4" font-family="Consolas" font-size="14.00"> </text>
<polygon fill="none" stroke="black" points="310,-197 310,-219 323,-219 323,-197 310,-197"/>
<text text-anchor="start" x="312.65" y="-203.4" font-family="Consolas" font-size="14.00"> </text>
<polygon fill="none" stroke="black" points="325,-197 325,-219 338,-219 338,-197 325,-197"/>
<text text-anchor="start" x="327.65" y="-203.4" font-family="Consolas" font-size="14.00"> </text>
<polygon fill="none" stroke="black" points="340,-197 340,-219 353,-219 353,-197 340,-197"/>
<text text-anchor="start" x="342.65" y="-203.4" font-family="Consolas" font-size="14.00"> </text>
<polygon fill="none" stroke="black" points="276.5,-194 276.5,-318 355.5,-318 355.5,-194 276.5,-194"/>
</g>
<!-- z5&#45;&#45;z8 -->
<g id="edge13" class="edge" data-name="z5--z8">

<path fill="none" stroke="black" d="M316,-374.84C316,-357.6 316,-338.98 316,-321.75"/>
</g>
<!-- z9 -->
<g id="node16" class="node" pointer-events="visible" data-name="z9">

<text text-anchor="middle" x="409" y="-251.8" font-family="Consolas" font-size="14.00">...</text>
</g>
<!-- z5&#45;&#45;z9 -->
<g id="edge14" class="edge" data-name="z5--z9">

<path fill="none" stroke="black" d="M349.05,-374.84C367.43,-338.71 388.87,-296.56 400.48,-273.75"/>
<text text-anchor="middle" x="415.16" y="-344.2" font-family="Times,serif" font-size="14.00">23-Möglichkeiten</text>
</g>




</g>
</svg>