<?xml version="1.0" standalone="no"?>
<svg xmlns="http://www.w3.org/2000/svg" xmlns:xlink="http://www.w3.org/1999/xlink" width="260pt" height="252pt" viewBox="0.00 0.00 260.09 252.22">
<g id="graph0" class="graph" transform="translate(4,248.22000122070312) scale(1)" data-name="BlockedStone">

<polygon fill="white" stroke="none" points="-4,4 -4,-248.22 256.09,-248.22 256.09,4 -4,4" style=""/>
<text text-anchor="middle" x="126.04" y="-8.2" font-family="Times,serif" font-size="14.00" style="">Mögliche Züge eines einzelnen Steins</text>
<!-- stein -->
<g id="node1" class="node" pointer-events="visible" data-name="stein">

<ellipse fill="royalblue" stroke="black" cx="127.21" cy="-134.51" rx="18" ry="18" style=""/>
</g>
<!-- otherStein -->
<g id="node2" class="node" pointer-events="visible" data-name="otherStein">

<ellipse fill="brown" stroke="black" cx="225.7" cy="-134.51" rx="18" ry="18" style=""/>
</g>
<!-- stein&#45;&#45;otherStein -->
<g id="edge8" class="edge" data-name="stein--otherStein">

<path fill="none" stroke="white" d="M145.27,-134.51C162.93,-134.51 189.68,-134.51 207.42,-134.51" style=""/>
<text text-anchor="middle" x="176.34" y="-121.91" font-family="Times,serif" font-size="14.00" style="">blocked</text>
</g>
<!-- f1 -->
<g id="node3" class="node" pointer-events="visible" data-name="f1">

<polygon fill="none" stroke="black" points="252.09,-243.48 198.09,-243.48 198.09,-207.48 252.09,-207.48 252.09,-243.48" style=""/>
<text text-anchor="start" x="215.37" y="-222.28" font-family="Times,serif" font-style="italic" font-size="14.00" style="">frei</text>
</g>
<!-- stein&#45;&#45;f1 -->
<g id="edge1" class="edge" data-name="stein--f1">

<path fill="none" stroke="black" d="M140.41,-146.78C155.15,-160.48 179.4,-183.02 198.19,-200.48" style=""/>
<polygon fill="black" stroke="black" points="205.34,-207.13 194.95,-203.61 201.68,-203.72 198.02,-200.32 198.02,-200.32 198.02,-200.32 201.68,-203.72 201.08,-197.02 205.34,-207.13 205.34,-207.13" style=""/>
</g>
<!-- f2 -->
<g id="node4" class="node" pointer-events="visible" data-name="f2">

<polygon fill="none" stroke="black" points="156.04,-244.22 102.04,-244.22 102.04,-208.22 156.04,-208.22 156.04,-244.22" style=""/>
<text text-anchor="start" x="119.32" y="-223.02" font-family="Times,serif" font-style="italic" font-size="14.00" style="">frei</text>
</g>
<!-- stein&#45;&#45;f2 -->
<g id="edge2" class="edge" data-name="stein--f2">

<path fill="none" stroke="black" d="M127.57,-152.63C127.83,-165.61 128.18,-183.33 128.48,-198.14" style=""/>
<polygon fill="black" stroke="black" points="128.67,-207.82 123.97,-197.91 128.57,-202.82 128.47,-197.82 128.47,-197.82 128.47,-197.82 128.57,-202.82 132.97,-197.73 128.67,-207.82 128.67,-207.82" style=""/>
</g>
<!-- f3 -->
<g id="node5" class="node" pointer-events="visible" data-name="f3">

<polygon fill="none" stroke="black" points="56.89,-243.65 2.89,-243.65 2.89,-207.65 56.89,-207.65 56.89,-243.65" style=""/>
<text text-anchor="start" x="20.17" y="-222.45" font-family="Times,serif" font-style="italic" font-size="14.00" style="">frei</text>
</g>
<!-- stein&#45;&#45;f3 -->
<g id="edge3" class="edge" data-name="stein--f3">

<path fill="none" stroke="black" d="M114.08,-146.8C99.43,-160.53 75.31,-183.11 56.64,-200.6" style=""/>
<polygon fill="black" stroke="black" points="49.52,-207.26 53.75,-197.14 53.17,-203.84 56.82,-200.42 56.82,-200.42 56.82,-200.42 53.17,-203.84 59.9,-203.71 49.52,-207.26 49.52,-207.26" style=""/>
</g>
<!-- f4 -->
<g id="node6" class="node" pointer-events="visible" data-name="f4">

<polygon fill="none" stroke="black" points="54,-152.51 0,-152.51 0,-116.51 54,-116.51 54,-152.51" style=""/>
<text text-anchor="start" x="17.28" y="-131.31" font-family="Times,serif" font-style="italic" font-size="14.00" style="">frei</text>
</g>
<!-- stein&#45;&#45;f4 -->
<g id="edge4" class="edge" data-name="stein--f4">

<path fill="none" stroke="black" d="M108.83,-134.51C96.31,-134.51 79.31,-134.51 64.05,-134.51" style=""/>
<polygon fill="black" stroke="black" points="54.34,-134.51 64.34,-130.01 59.34,-134.51 64.34,-134.51 64.34,-134.51 64.34,-134.51 59.34,-134.51 64.34,-139.01 54.34,-134.51 54.34,-134.51" style=""/>
</g>
<!-- f5 -->
<g id="node7" class="node" pointer-events="visible" data-name="f5">

<polygon fill="none" stroke="black" points="56.89,-61.37 2.89,-61.37 2.89,-25.37 56.89,-25.37 56.89,-61.37" style=""/>
<text text-anchor="start" x="20.17" y="-40.17" font-family="Times,serif" font-style="italic" font-size="14.00" style="">frei</text>
</g>
<!-- stein&#45;&#45;f5 -->
<g id="edge5" class="edge" data-name="stein--f5">

<path fill="none" stroke="black" d="M114.08,-122.22C99.43,-108.49 75.31,-85.91 56.64,-68.42" style=""/>
<polygon fill="black" stroke="black" points="49.52,-61.76 59.9,-65.31 53.17,-65.18 56.82,-68.59 56.82,-68.59 56.82,-68.59 53.17,-65.18 53.75,-71.88 49.52,-61.76 49.52,-61.76" style=""/>
</g>
<!-- f6 -->
<g id="node8" class="node" pointer-events="visible" data-name="f6">

<polygon fill="none" stroke="black" points="156.04,-60.8 102.04,-60.8 102.04,-24.8 156.04,-24.8 156.04,-60.8" style=""/>
<text text-anchor="start" x="119.32" y="-39.6" font-family="Times,serif" font-style="italic" font-size="14.00" style="">frei</text>
</g>
<!-- stein&#45;&#45;f6 -->
<g id="edge6" class="edge" data-name="stein--f6">

<path fill="none" stroke="black" d="M127.57,-116.39C127.83,-103.41 128.18,-85.68 128.48,-70.88" style=""/>
<polygon fill="black" stroke="black" points="128.67,-61.19 132.97,-71.28 128.57,-66.19 128.47,-71.19 128.47,-71.19 128.47,-71.19 128.57,-66.19 123.97,-71.1 128.67,-61.19 128.67,-61.19" style=""/>
</g>
<!-- f7 -->
<g id="node9" class="node" pointer-events="visible" data-name="f7">

<polygon fill="none" stroke="black" points="252.09,-61.54 198.09,-61.54 198.09,-25.54 252.09,-25.54 252.09,-61.54" style=""/>
<text text-anchor="start" x="215.37" y="-40.34" font-family="Times,serif" font-style="italic" font-size="14.00" style="">frei</text>
</g>
<!-- stein&#45;&#45;f7 -->
<g id="edge7" class="edge" data-name="stein--f7">

<path fill="none" stroke="black" d="M140.41,-122.24C155.15,-108.54 179.4,-86 198.19,-68.54" style=""/>
<polygon fill="black" stroke="black" points="205.34,-61.89 201.08,-71.99 201.68,-65.29 198.02,-68.7 198.02,-68.7 198.02,-68.7 201.68,-65.29 194.95,-65.4 205.34,-61.89 205.34,-61.89" style=""/>
</g>
</g>
</svg>